<?xml version="1.0" encoding="UTF-8" standalone="no"?>
<!DOCTYPE svg PUBLIC "-//W3C//DTD SVG 1.1//EN"
 "http://www.w3.org/Graphics/SVG/1.1/DTD/svg11.dtd">
<!-- Generated by graphviz version 2.28.0 (20120524.1247)
 -->
<!-- Title: G Pages: 1 -->
<svg width="810pt" height="914pt"
 viewBox="0.00 0.00 810.00 914.00" xmlns="http://www.w3.org/2000/svg" xmlns:xlink="http://www.w3.org/1999/xlink">
<g id="graph1" class="graph" transform="scale(1 1) rotate(0) translate(4 910)">
<title>G</title>
<polygon fill="white" stroke="white" points="-4,5 -4,-910 807,-910 807,5 -4,5"/>
<g id="graph2" class="cluster"><title>cluster_Sevdev</title>
<polyline fill="none" stroke="gray" points="578,-8 782,-8 "/>
<path fill="none" stroke="gray" d="M782,-8C788,-8 794,-14 794,-20"/>
<polyline fill="none" stroke="gray" points="794,-20 794,-886 "/>
<path fill="none" stroke="gray" d="M794,-886C794,-892 788,-898 782,-898"/>
<polyline fill="none" stroke="gray" points="782,-898 578,-898 "/>
<path fill="none" stroke="gray" d="M578,-898C572,-898 566,-892 566,-886"/>
<polyline fill="none" stroke="gray" points="566,-886 566,-20 "/>
<path fill="none" stroke="gray" d="M566,-20C566,-14 572,-8 578,-8"/>
<text text-anchor="middle" x="680" y="-885.2" font-family="Times,serif" font-size="11.00" fill="gray">Sevdev</text>
</g>
<g id="graph3" class="cluster"><title>cluster_Sevdev\ArkonTestBundle</title>
<polyline fill="none" stroke="gray" points="586,-16 774,-16 "/>
<path fill="none" stroke="gray" d="M774,-16C780,-16 786,-22 786,-28"/>
<polyline fill="none" stroke="gray" points="786,-28 786,-858 "/>
<path fill="none" stroke="gray" d="M786,-858C786,-864 780,-870 774,-870"/>
<polyline fill="none" stroke="gray" points="774,-870 586,-870 "/>
<path fill="none" stroke="gray" d="M586,-870C580,-870 574,-864 574,-858"/>
<polyline fill="none" stroke="gray" points="574,-858 574,-28 "/>
<path fill="none" stroke="gray" d="M574,-28C574,-22 580,-16 586,-16"/>
<text text-anchor="middle" x="680" y="-857.2" font-family="Times,serif" font-size="11.00" fill="gray">ArkonTestBundle</text>
</g>
<g id="graph4" class="cluster"><title>cluster_Sevdev\ArkonTestBundle\Controller</title>
<polyline fill="none" stroke="gray" points="615,-608 745,-608 "/>
<path fill="none" stroke="gray" d="M745,-608C751,-608 757,-614 757,-620"/>
<polyline fill="none" stroke="gray" points="757,-620 757,-830 "/>
<path fill="none" stroke="gray" d="M757,-830C757,-836 751,-842 745,-842"/>
<polyline fill="none" stroke="gray" points="745,-842 615,-842 "/>
<path fill="none" stroke="gray" d="M615,-842C609,-842 603,-836 603,-830"/>
<polyline fill="none" stroke="gray" points="603,-830 603,-620 "/>
<path fill="none" stroke="gray" d="M603,-620C603,-614 609,-608 615,-608"/>
<text text-anchor="middle" x="680" y="-829.2" font-family="Times,serif" font-size="11.00" fill="gray">Controller</text>
</g>
<g id="graph5" class="cluster"><title>cluster_Sevdev\ArkonTestBundle\DependencyInjection</title>
<polyline fill="none" stroke="gray" points="594,-474 766,-474 "/>
<path fill="none" stroke="gray" d="M766,-474C772,-474 778,-480 778,-486"/>
<polyline fill="none" stroke="gray" points="778,-486 778,-588 "/>
<path fill="none" stroke="gray" d="M778,-588C778,-594 772,-600 766,-600"/>
<polyline fill="none" stroke="gray" points="766,-600 594,-600 "/>
<path fill="none" stroke="gray" d="M594,-600C588,-600 582,-594 582,-588"/>
<polyline fill="none" stroke="gray" points="582,-588 582,-486 "/>
<path fill="none" stroke="gray" d="M582,-486C582,-480 588,-474 594,-474"/>
<text text-anchor="middle" x="680" y="-587.2" font-family="Times,serif" font-size="11.00" fill="gray">DependencyInjection</text>
</g>
<g id="graph6" class="cluster"><title>cluster_Sevdev\ArkonTestBundle\Entity</title>
<polyline fill="none" stroke="gray" points="618,-70 742,-70 "/>
<path fill="none" stroke="gray" d="M742,-70C748,-70 754,-76 754,-82"/>
<polyline fill="none" stroke="gray" points="754,-82 754,-454 "/>
<path fill="none" stroke="gray" d="M754,-454C754,-460 748,-466 742,-466"/>
<polyline fill="none" stroke="gray" points="742,-466 618,-466 "/>
<path fill="none" stroke="gray" d="M618,-466C612,-466 606,-460 606,-454"/>
<polyline fill="none" stroke="gray" points="606,-454 606,-82 "/>
<path fill="none" stroke="gray" d="M606,-82C606,-76 612,-70 618,-70"/>
<text text-anchor="middle" x="680" y="-453.2" font-family="Times,serif" font-size="11.00" fill="gray">Entity</text>
</g>
<!-- \\Sevdev\\ArkonTestBundle\\Controller\\UsersController -->
<g id="node4" class="node"><title>\\Sevdev\\ArkonTestBundle\\Controller\\UsersController</title>
<a xlink:href="Controller.UsersController.html" xlink:title="UsersController" target="_parent">
<polygon fill="none" stroke="black" points="739,-814 621,-814 621,-778 739,-778 739,-814"/>
<text text-anchor="middle" x="680" y="-793.2" font-family="Courier,monospace" font-size="11.00">UsersController</text>
</a>
</g>
<!-- Symfony\\Bundle\\FrameworkBundle\\Controller\\Controller -->
<g id="node30" class="node"><title>Symfony\\Bundle\\FrameworkBundle\\Controller\\Controller</title>
<ellipse fill="none" stroke="black" cx="259" cy="-715" rx="229.359" ry="18"/>
<text text-anchor="middle" x="259" y="-711.3" font-family="Times,serif" font-size="14.00" fill="gray">Symfony\Bundle\FrameworkBundle\Controller\Controller</text>
</g>
<!-- \\Sevdev\\ArkonTestBundle\\Controller\\UsersController&#45;&gt;Symfony\\Bundle\\FrameworkBundle\\Controller\\Controller -->
<g id="edge18" class="edge"><title>\\Sevdev\\ArkonTestBundle\\Controller\\UsersController&#45;&gt;Symfony\\Bundle\\FrameworkBundle\\Controller\\Controller</title>
<path fill="none" stroke="black" d="M620.74,-784.737C552.49,-771.543 438.386,-749.485 356.778,-733.709"/>
<polygon fill="none" stroke="black" points="356.974,-730.182 346.491,-731.72 355.645,-737.055 356.974,-730.182"/>
</g>
<!-- \\Sevdev\\ArkonTestBundle\\Controller\\StudiesController -->
<g id="node5" class="node"><title>\\Sevdev\\ArkonTestBundle\\Controller\\StudiesController</title>
<a xlink:href="Controller.StudiesController.html" xlink:title="StudiesController" target="_parent">
<polygon fill="none" stroke="black" points="745.5,-760 614.5,-760 614.5,-724 745.5,-724 745.5,-760"/>
<text text-anchor="middle" x="680" y="-739.2" font-family="Courier,monospace" font-size="11.00">StudiesController</text>
</a>
</g>
<!-- \\Sevdev\\ArkonTestBundle\\Controller\\StudiesController&#45;&gt;Symfony\\Bundle\\FrameworkBundle\\Controller\\Controller -->
<g id="edge20" class="edge"><title>\\Sevdev\\ArkonTestBundle\\Controller\\StudiesController&#45;&gt;Symfony\\Bundle\\FrameworkBundle\\Controller\\Controller</title>
<path fill="none" stroke="black" d="M614.45,-737.84C569.437,-734.94 506.915,-730.911 446.896,-727.043"/>
<polygon fill="none" stroke="black" points="447.103,-723.55 436.899,-726.399 446.653,-730.535 447.103,-723.55"/>
</g>
<!-- \\Sevdev\\ArkonTestBundle\\Controller\\SchoolsController -->
<g id="node6" class="node"><title>\\Sevdev\\ArkonTestBundle\\Controller\\SchoolsController</title>
<a xlink:href="Controller.SchoolsController.html" xlink:title="SchoolsController" target="_parent">
<polygon fill="none" stroke="black" points="745.5,-706 614.5,-706 614.5,-670 745.5,-670 745.5,-706"/>
<text text-anchor="middle" x="680" y="-685.2" font-family="Courier,monospace" font-size="11.00">SchoolsController</text>
</a>
</g>
<!-- \\Sevdev\\ArkonTestBundle\\Controller\\SchoolsController&#45;&gt;Symfony\\Bundle\\FrameworkBundle\\Controller\\Controller -->
<g id="edge22" class="edge"><title>\\Sevdev\\ArkonTestBundle\\Controller\\SchoolsController&#45;&gt;Symfony\\Bundle\\FrameworkBundle\\Controller\\Controller</title>
<path fill="none" stroke="black" d="M614.45,-692.16C569.437,-695.06 506.915,-699.089 446.896,-702.957"/>
<polygon fill="none" stroke="black" points="446.653,-699.465 436.899,-703.601 447.103,-706.45 446.653,-699.465"/>
</g>
<!-- \\Sevdev\\ArkonTestBundle\\Controller\\StudentsController -->
<g id="node7" class="node"><title>\\Sevdev\\ArkonTestBundle\\Controller\\StudentsController</title>
<a xlink:href="Controller.StudentsController.html" xlink:title="StudentsController" target="_parent">
<polygon fill="none" stroke="black" points="749,-652 611,-652 611,-616 749,-616 749,-652"/>
<text text-anchor="middle" x="680" y="-631.2" font-family="Courier,monospace" font-size="11.00">StudentsController</text>
</a>
</g>
<!-- \\Sevdev\\ArkonTestBundle\\Controller\\StudentsController&#45;&gt;Symfony\\Bundle\\FrameworkBundle\\Controller\\Controller -->
<g id="edge24" class="edge"><title>\\Sevdev\\ArkonTestBundle\\Controller\\StudentsController&#45;&gt;Symfony\\Bundle\\FrameworkBundle\\Controller\\Controller</title>
<path fill="none" stroke="black" d="M610.748,-647.194C541.728,-660.537 434.424,-681.281 356.67,-696.312"/>
<polygon fill="none" stroke="black" points="355.536,-692.966 346.382,-698.301 356.865,-699.839 355.536,-692.966"/>
</g>
<!-- \\Sevdev\\ArkonTestBundle\\DependencyInjection\\SevdevArkonTestExtension -->
<g id="node9" class="node"><title>\\Sevdev\\ArkonTestBundle\\DependencyInjection\\SevdevArkonTestExtension</title>
<a xlink:href="DependencyInjection.SevdevArkonTestExtension.html" xlink:title="SevdevArkonTestExtension" target="_parent">
<polygon fill="none" stroke="black" points="769.5,-572 590.5,-572 590.5,-536 769.5,-536 769.5,-572"/>
<text text-anchor="middle" x="680" y="-551.2" font-family="Courier,monospace" font-size="11.00">SevdevArkonTestExtension</text>
</a>
</g>
<!-- Symfony\\Component\\HttpKernel\\DependencyInjection\\Extension -->
<g id="node35" class="node"><title>Symfony\\Component\\HttpKernel\\DependencyInjection\\Extension</title>
<ellipse fill="none" stroke="black" cx="259" cy="-554" rx="258.854" ry="18"/>
<text text-anchor="middle" x="259" y="-550.3" font-family="Times,serif" font-size="14.00" fill="gray">Symfony\Component\HttpKernel\DependencyInjection\Extension</text>
</g>
<!-- \\Sevdev\\ArkonTestBundle\\DependencyInjection\\SevdevArkonTestExtension&#45;&gt;Symfony\\Component\\HttpKernel\\DependencyInjection\\Extension -->
<g id="edge26" class="edge"><title>\\Sevdev\\ArkonTestBundle\\DependencyInjection\\SevdevArkonTestExtension&#45;&gt;Symfony\\Component\\HttpKernel\\DependencyInjection\\Extension</title>
<path fill="none" stroke="black" d="M590.397,-554C571.341,-554 550.256,-554 528.229,-554"/>
<polygon fill="none" stroke="black" points="528.046,-550.5 518.046,-554 528.046,-557.5 528.046,-550.5"/>
</g>
<!-- \\Sevdev\\ArkonTestBundle\\DependencyInjection\\Configuration -->
<g id="node10" class="node"><title>\\Sevdev\\ArkonTestBundle\\DependencyInjection\\Configuration</title>
<a xlink:href="DependencyInjection.Configuration.html" xlink:title="Configuration" target="_parent">
<polygon fill="none" stroke="black" points="732,-518 628,-518 628,-482 732,-482 732,-518"/>
<text text-anchor="middle" x="680" y="-497.2" font-family="Courier,monospace" font-size="11.00">Configuration</text>
</a>
</g>
<!-- Symfony\\Component\\Config\\Definition\\ConfigurationInterface -->
<g id="node39" class="node"><title>Symfony\\Component\\Config\\Definition\\ConfigurationInterface</title>
<ellipse fill="none" stroke="black" cx="259" cy="-500" rx="258.854" ry="18"/>
<text text-anchor="middle" x="259" y="-496.3" font-family="Times,serif" font-size="14.00" fill="gray">Symfony\\Component\\Config\\Definition\\ConfigurationInterface</text>
</g>
<!-- \\Sevdev\\ArkonTestBundle\\DependencyInjection\\Configuration&#45;&gt;Symfony\\Component\\Config\\Definition\\ConfigurationInterface -->
<g id="edge30" class="edge"><title>\\Sevdev\\ArkonTestBundle\\DependencyInjection\\Configuration&#45;&gt;Symfony\\Component\\Config\\Definition\\ConfigurationInterface</title>
<path fill="none" stroke="black" stroke-dasharray="1,5" d="M627.622,-500C600.842,-500 565.821,-500 528.038,-500"/>
<polygon fill="none" stroke="black" points="527.846,-496.5 517.846,-500 527.846,-503.5 527.846,-496.5"/>
</g>
<!-- \\Sevdev\\ArkonTestBundle\\Entity\\Study -->
<g id="node12" class="node"><title>\\Sevdev\\ArkonTestBundle\\Entity\\Study</title>
<a xlink:href="Entity.Study.html" xlink:title="Study" target="_parent">
<polygon fill="none" stroke="black" points="707,-438 653,-438 653,-402 707,-402 707,-438"/>
<text text-anchor="middle" x="680" y="-417.2" font-family="Courier,monospace" font-size="11.00">Study</text>
</a>
</g>
<!-- \\Sevdev\\ArkonTestBundle\\Entity\\User -->
<g id="node13" class="node"><title>\\Sevdev\\ArkonTestBundle\\Entity\\User</title>
<a xlink:href="Entity.User.html" xlink:title="User" target="_parent">
<polygon fill="none" stroke="black" points="707,-384 653,-384 653,-348 707,-348 707,-384"/>
<text text-anchor="middle" x="680" y="-363.2" font-family="Courier,monospace" font-size="11.00">User</text>
</a>
</g>
<!-- Symfony\\Component\\Security\\Core\\User\\UserInterface -->
<g id="node37" class="node"><title>Symfony\\Component\\Security\\Core\\User\\UserInterface</title>
<ellipse fill="none" stroke="black" cx="259" cy="-366" rx="229.359" ry="18"/>
<text text-anchor="middle" x="259" y="-362.3" font-family="Times,serif" font-size="14.00" fill="gray">Symfony\\Component\\Security\\Core\\User\\UserInterface</text>
</g>
<!-- \\Sevdev\\ArkonTestBundle\\Entity\\User&#45;&gt;Symfony\\Component\\Security\\Core\\User\\UserInterface -->
<g id="edge28" class="edge"><title>\\Sevdev\\ArkonTestBundle\\Entity\\User&#45;&gt;Symfony\\Component\\Security\\Core\\User\\UserInterface</title>
<path fill="none" stroke="black" stroke-dasharray="1,5" d="M652.79,-366C620.18,-366 561.117,-366 498.529,-366"/>
<polygon fill="none" stroke="black" points="498.457,-362.5 488.457,-366 498.457,-369.5 498.457,-362.5"/>
</g>
<!-- \\Sevdev\\ArkonTestBundle\\Entity\\SchoolRepository -->
<g id="node14" class="node"><title>\\Sevdev\\ArkonTestBundle\\Entity\\SchoolRepository</title>
<a xlink:href="Entity.SchoolRepository.html" xlink:title="SchoolRepository" target="_parent">
<polygon fill="none" stroke="black" points="742.5,-330 617.5,-330 617.5,-294 742.5,-294 742.5,-330"/>
<text text-anchor="middle" x="680" y="-309.2" font-family="Courier,monospace" font-size="11.00">SchoolRepository</text>
</a>
</g>
<!-- Doctrine\\ORM\\EntityRepository -->
<g id="node26" class="node"><title>Doctrine\\ORM\\EntityRepository</title>
<ellipse fill="none" stroke="black" cx="259" cy="-204" rx="133.477" ry="18"/>
<text text-anchor="middle" x="259" y="-200.3" font-family="Times,serif" font-size="14.00" fill="gray">Doctrine\ORM\EntityRepository</text>
</g>
<!-- \\Sevdev\\ArkonTestBundle\\Entity\\SchoolRepository&#45;&gt;Doctrine\\ORM\\EntityRepository -->
<g id="edge12" class="edge"><title>\\Sevdev\\ArkonTestBundle\\Entity\\SchoolRepository&#45;&gt;Doctrine\\ORM\\EntityRepository</title>
<path fill="none" stroke="black" d="M617.355,-297.556C600.669,-293.569 582.626,-289.186 566,-285 484.305,-264.431 390.723,-239.45 328.786,-222.718"/>
<polygon fill="none" stroke="black" points="329.691,-219.337 319.124,-220.105 327.863,-226.094 329.691,-219.337"/>
</g>
<!-- \\Sevdev\\ArkonTestBundle\\Entity\\School -->
<g id="node15" class="node"><title>\\Sevdev\\ArkonTestBundle\\Entity\\School</title>
<a xlink:href="Entity.School.html" xlink:title="School" target="_parent">
<polygon fill="none" stroke="black" points="708.5,-276 651.5,-276 651.5,-240 708.5,-240 708.5,-276"/>
<text text-anchor="middle" x="680" y="-255.2" font-family="Courier,monospace" font-size="11.00">School</text>
</a>
</g>
<!-- \\Sevdev\\ArkonTestBundle\\Entity\\StudentRepository -->
<g id="node16" class="node"><title>\\Sevdev\\ArkonTestBundle\\Entity\\StudentRepository</title>
<a xlink:href="Entity.StudentRepository.html" xlink:title="StudentRepository" target="_parent">
<polygon fill="none" stroke="black" points="745.5,-222 614.5,-222 614.5,-186 745.5,-186 745.5,-222"/>
<text text-anchor="middle" x="680" y="-201.2" font-family="Courier,monospace" font-size="11.00">StudentRepository</text>
</a>
</g>
<!-- \\Sevdev\\ArkonTestBundle\\Entity\\StudentRepository&#45;&gt;Doctrine\\ORM\\EntityRepository -->
<g id="edge14" class="edge"><title>\\Sevdev\\ArkonTestBundle\\Entity\\StudentRepository&#45;&gt;Doctrine\\ORM\\EntityRepository</title>
<path fill="none" stroke="black" d="M614.45,-204C558.104,-204 474.32,-204 402.356,-204"/>
<polygon fill="none" stroke="black" points="402.284,-200.5 392.284,-204 402.284,-207.5 402.284,-200.5"/>
</g>
<!-- \\Sevdev\\ArkonTestBundle\\Entity\\UserRepository -->
<g id="node17" class="node"><title>\\Sevdev\\ArkonTestBundle\\Entity\\UserRepository</title>
<a xlink:href="Entity.UserRepository.html" xlink:title="UserRepository" target="_parent">
<polygon fill="none" stroke="black" points="735.5,-168 624.5,-168 624.5,-132 735.5,-132 735.5,-168"/>
<text text-anchor="middle" x="680" y="-147.2" font-family="Courier,monospace" font-size="11.00">UserRepository</text>
</a>
</g>
<!-- \\Sevdev\\ArkonTestBundle\\Entity\\UserRepository&#45;&gt;Doctrine\\ORM\\EntityRepository -->
<g id="edge16" class="edge"><title>\\Sevdev\\ArkonTestBundle\\Entity\\UserRepository&#45;&gt;Doctrine\\ORM\\EntityRepository</title>
<path fill="none" stroke="black" d="M624.223,-157.06C558.956,-165.471 448.421,-179.717 366.2,-190.313"/>
<polygon fill="none" stroke="black" points="365.536,-186.87 356.065,-191.619 366.431,-193.812 365.536,-186.87"/>
</g>
<!-- \\Sevdev\\ArkonTestBundle\\Entity\\Student -->
<g id="node18" class="node"><title>\\Sevdev\\ArkonTestBundle\\Entity\\Student</title>
<a xlink:href="Entity.Student.html" xlink:title="Student" target="_parent">
<polygon fill="none" stroke="black" points="712,-114 648,-114 648,-78 712,-78 712,-114"/>
<text text-anchor="middle" x="680" y="-93.2" font-family="Courier,monospace" font-size="11.00">Student</text>
</a>
</g>
<!-- \\Sevdev\\ArkonTestBundle\\SevdevArkonTestBundle -->
<g id="node19" class="node"><title>\\Sevdev\\ArkonTestBundle\\SevdevArkonTestBundle</title>
<a xlink:href="SevdevArkonTestBundle.html" xlink:title="SevdevArkonTestBundle" target="_parent">
<polygon fill="none" stroke="black" points="759,-60 601,-60 601,-24 759,-24 759,-60"/>
<text text-anchor="middle" x="680" y="-39.2" font-family="Courier,monospace" font-size="11.00">SevdevArkonTestBundle</text>
</a>
</g>
<!-- Symfony\\Component\\HttpKernel\\Bundle\\Bundle -->
<g id="node24" class="node"><title>Symfony\\Component\\HttpKernel\\Bundle\\Bundle</title>
<ellipse fill="none" stroke="black" cx="259" cy="-42" rx="196.065" ry="18"/>
<text text-anchor="middle" x="259" y="-38.3" font-family="Times,serif" font-size="14.00" fill="gray">Symfony\Component\HttpKernel\Bundle\Bundle</text>
</g>
<!-- \\Sevdev\\ArkonTestBundle\\SevdevArkonTestBundle&#45;&gt;Symfony\\Component\\HttpKernel\\Bundle\\Bundle -->
<g id="edge10" class="edge"><title>\\Sevdev\\ArkonTestBundle\\SevdevArkonTestBundle&#45;&gt;Symfony\\Component\\HttpKernel\\Bundle\\Bundle</title>
<path fill="none" stroke="black" d="M600.681,-42C562.204,-42 513.848,-42 465.755,-42"/>
<polygon fill="none" stroke="black" points="465.501,-38.5001 455.5,-42 465.5,-45.5001 465.501,-38.5001"/>
</g>
</g>
</svg>
